<?xml version="1.0" encoding="utf-8"?>
<!-- Generator: Adobe Illustrator 25.4.5, SVG Export Plug-In . SVG Version: 6.00 Build 0)  -->
<svg version="1.1" id="Lager_1" xmlns="http://www.w3.org/2000/svg" xmlns:xlink="http://www.w3.org/1999/xlink" x="0px" y="0px"
	 viewBox="0 0 24 24" style="enable-background:new 0 0 24 24;" xml:space="preserve">
<style type="text/css">
	.st0{fill:none;}
	.st1{fill:#FFFFFF;}
</style>
<path class="st0" d="M0,0h24v24H0V0z"/>
<path d="M19,3H5C3.9,3,3,3.9,3,5v14c0,1.1,0.9,2,2,2h14c1.1,0,2-0.9,2-2V5C21,3.9,20.1,3,19,3z M9,17H7v-5h2V17z M13,17h-2v-3h2V17z
	 M13,12h-2v-2h2V12z M17,17h-2V7h2V17z"/>
<g>
	<path class="st1" d="M7,4h2.8v1.9H7V4z"/>
	<circle class="st1" cx="5.1" cy="4.9" r="0.9"/>
	<path class="st1" d="M7,9.6c1.5,0,2.8-1.3,2.8-2.8H7.9c0,0.5-0.4,0.9-0.9,0.9S6,7.3,6,6.8H4.2C4.2,8.3,5.4,9.6,7,9.6z"/>
</g>
</svg>
