<?xml version="1.0" encoding="UTF-8" standalone="no"?>
<!-- Created with Inkscape (http://www.inkscape.org/) -->

<svg
   xmlns:dc="http://purl.org/dc/elements/1.1/"
   xmlns:cc="http://creativecommons.org/ns#"
   xmlns:rdf="http://www.w3.org/1999/02/22-rdf-syntax-ns#"
   xmlns:svg="http://www.w3.org/2000/svg"
   xmlns="http://www.w3.org/2000/svg"
   xmlns:sodipodi="http://sodipodi.sourceforge.net/DTD/sodipodi-0.dtd"
   xmlns:inkscape="http://www.inkscape.org/namespaces/inkscape"
   width="101.17188"
   height="100.78125"
   viewBox="0 0 101.17188 100.78125"
   id="svg3372"
   version="1.1"
   inkscape:version="0.48.5 r10040"
   sodipodi:docname="для изображения без линий.svg">
  <defs
     id="defs3374" />
  <sodipodi:namedview
     id="base"
     pagecolor="#ffffff"
     bordercolor="#666666"
     borderopacity="1.0"
     inkscape:pageopacity="0.0"
     inkscape:pageshadow="2"
     inkscape:zoom="2.61"
     inkscape:cx="60.636216"
     inkscape:cy="21.041732"
     inkscape:document-units="px"
     inkscape:current-layer="layer3"
     showgrid="false"
     showguides="true"
     inkscape:guide-bbox="true"
     inkscape:snap-intersection-paths="true"
     inkscape:object-nodes="true"
     units="px"
     inkscape:snap-to-guides="true"
     inkscape:window-width="1400"
     inkscape:window-height="1003"
     inkscape:window-x="-4"
     inkscape:window-y="-4"
     inkscape:window-maximized="1"
     inkscape:snap-bbox="false"
     inkscape:object-paths="false"
     inkscape:snap-center="true"
     inkscape:snap-object-midpoints="false"
     inkscape:snap-text-baseline="true"
     fit-margin-top="0"
     fit-margin-left="0"
     fit-margin-right="0"
     fit-margin-bottom="0">
    <inkscape:grid
       type="xygrid"
       id="grid4557"
       empspacing="5"
       visible="true"
       enabled="true"
       snapvisiblegridlinesonly="true"
       originx="-175px"
       originy="-109.43361px" />
  </sodipodi:namedview>
  <metadata
     id="metadata3377">
    <rdf:RDF>
      <cc:Work
         rdf:about="">
        <dc:format>image/svg+xml</dc:format>
        <dc:type
           rdf:resource="http://purl.org/dc/dcmitype/StillImage" />
        <dc:title></dc:title>
      </cc:Work>
    </rdf:RDF>
  </metadata>
  <g
     inkscape:groupmode="layer"
     id="layer3"
     inkscape:label="Text letter"
     style="display:inline"
     transform="translate(-175.00001,-89.785149)">
    <g
       style="font-size:80px;font-style:normal;font-weight:normal;text-align:center;line-height:125%;letter-spacing:0px;word-spacing:0px;text-anchor:middle;fill:#000000;fill-opacity:1;stroke:none;display:inline;font-family:Universalia;-inkscape-font-specification:Universalia"
       id="text3393">
      <path
         d="m 276.17189,181.38672 -8.59375,9.17968 -11.23047,-11.32812 c -8.20319,7.4219 -18.32688,11.13283 -30.37109,11.13281 -12.23962,2e-5 -22.62373,-3.84112 -31.15235,-11.52344 l -11.23047,11.32813 -8.20312,-8.78906 11.03515,-11.03516 c -6.83594,-8.5937 -10.2539,-18.52208 -10.2539,-29.78516 0,-12.2395 3.35286,-22.29809 10.05859,-30.17578 l -11.23047,-11.425785 8.78906,-8.984375 11.6211,11.23047 c 4.29685,-3.645722 9.00062,-6.331266 14.11133,-8.056642 5.11064,-1.725142 10.72587,-2.587771 16.8457,-2.587891 5.72911,1.2e-4 11.0351,0.862749 15.91797,2.587891 4.88274,1.725376 9.44003,4.41092 13.67188,8.056642 l 11.03516,-11.425783 8.78906,8.789063 -10.35156,11.03516 c 6.77073,8.07301 10.15615,18.1967 10.15625,30.37109 -10e-5,12.10944 -3.38552,22.23313 -10.15625,30.3711 z m -14.16015,-41.21094 c -9e-5,-4.81764 -0.86272,-9.34237 -2.58789,-13.57422 -1.72535,-4.23169 -4.41089,-8.17049 -8.05665,-11.81641 -6.7709,-7.03115 -15.10422,-10.54677 -25,-10.54688 -9.96098,1.1e-4 -18.55472,3.51573 -25.78125,10.54688 -3.64585,3.64592 -6.31512,7.601 -8.00781,11.86523 -1.69273,4.26441 -2.53908,8.90307 -2.53906,13.91602 -2e-5,5.14329 0.84633,9.81451 2.53906,14.01367 1.69269,4.19927 4.36196,8.05669 8.00781,11.57227 3.64581,3.51567 7.60088,6.16866 11.86524,7.95899 4.26428,1.79039 8.83784,2.62047 13.7207,2.49023 9.96088,0.19535 18.42441,-3.35283 25.39063,-10.64453 6.96606,-7.0312 10.44913,-15.62494 10.44922,-25.78125 z"
         style="font-size:200.00001526px;font-variant:normal;font-stretch:normal;word-spacing:-70px;font-family:Universalia;-inkscape-font-specification:Universalia"
         id="path2986"
         inkscape:connector-curvature="0" />
    </g>
  </g>
</svg>
